<svg width="22" height="23" viewBox="0 0 22 23" fill="none" xmlns="http://www.w3.org/2000/svg">
<path fill-rule="evenodd" clip-rule="evenodd" d="M12.2142 10.6425V1.95982C12.2142 1.63775 12.0863 1.32887 11.8585 1.10113C11.6308 0.873394 11.3219 0.745453 10.9998 0.745453C10.6778 0.745453 10.3689 0.873394 10.1411 1.10113C9.91341 1.32887 9.78547 1.63775 9.78547 1.95982V10.6425L7.08958 7.27145C6.99188 7.1414 6.86904 7.0323 6.72836 6.95063C6.58769 6.86896 6.43204 6.81638 6.27065 6.79602C6.10927 6.77566 5.94544 6.78793 5.78889 6.83211C5.63233 6.87628 5.48625 6.95146 5.35931 7.05317C5.23237 7.15488 5.12716 7.28107 5.04992 7.42422C4.97269 7.56738 4.925 7.7246 4.90969 7.88654C4.89438 8.04848 4.91176 8.21185 4.9608 8.36694C5.00984 8.52204 5.08954 8.6657 5.19517 8.78941L10.0526 14.8612C10.1664 15.0031 10.3106 15.1175 10.4745 15.1962C10.6385 15.2748 10.818 15.3157 10.9998 15.3157C11.1817 15.3157 11.3612 15.2748 11.5251 15.1962C11.6891 15.1175 11.8332 15.0031 11.947 14.8612L16.8045 8.78941C16.9101 8.6657 16.9898 8.52204 17.0389 8.36694C17.0879 8.21185 17.1053 8.04848 17.09 7.88654C17.0747 7.7246 17.027 7.56738 16.9497 7.42422C16.8725 7.28107 16.7673 7.15488 16.6404 7.05317C16.5134 6.95146 16.3673 6.87628 16.2108 6.83211C16.0542 6.78793 15.8904 6.77566 15.729 6.79602C15.5676 6.81638 15.412 6.86896 15.2713 6.95063C15.1306 7.0323 15.0078 7.1414 14.9101 7.27145L12.2142 10.6425Z" fill="#666666"/>
<path fill-rule="evenodd" clip-rule="evenodd" d="M8.15483 16.3791L5.363 12.889H2.49953C1.85539 12.889 1.23763 13.1449 0.782159 13.6004C0.326684 14.0558 0.0708008 14.6736 0.0708008 15.3177V20.1752C0.0708008 20.8193 0.326684 21.4371 0.782159 21.8926C1.23763 22.348 1.85539 22.6039 2.49953 22.6039H19.5006C20.1448 22.6039 20.7625 22.348 21.218 21.8926C21.6735 21.4371 21.9294 20.8193 21.9294 20.1752V15.3177C21.9294 14.6736 21.6735 14.0558 21.218 13.6004C20.7625 13.1449 20.1448 12.889 19.5006 12.889H16.6372L13.8441 16.3791C13.5028 16.8057 13.0699 17.15 12.5775 17.3867C12.0851 17.6233 11.5458 17.7462 10.9995 17.7462C10.4532 17.7462 9.91383 17.6233 9.42142 17.3867C8.92901 17.15 8.49613 16.8057 8.15483 16.3791ZM17.0719 16.5321C16.7498 16.5321 16.441 16.66 16.2132 16.8878C15.9855 17.1155 15.8575 17.4244 15.8575 17.7465C15.8575 18.0685 15.9855 18.3774 16.2132 18.6052C16.441 18.8329 16.7498 18.9608 17.0719 18.9608H17.0841C17.4061 18.9608 17.715 18.8329 17.9427 18.6052C18.1705 18.3774 18.2984 18.0685 18.2984 17.7465C18.2984 17.4244 18.1705 17.1155 17.9427 16.8878C17.715 16.66 17.4061 16.5321 17.0841 16.5321H17.0719Z" fill="#666666"/>
</svg>
