<svg width="24" height="24" viewBox="0 0 24 24" fill="none" xmlns="http://www.w3.org/2000/svg">
<path d="M13.5 13.5C13.642 13.5 13.761 13.452 13.857 13.356C13.9523 13.2607 14 13.142 14 13V10.5H16.5C16.642 10.5 16.7607 10.452 16.856 10.356C16.952 10.26 17 10.1413 17 10C17 9.85867 16.952 9.74 16.856 9.644C16.7607 9.548 16.642 9.5 16.5 9.5H14V7C14 6.858 13.952 6.73933 13.856 6.644C13.76 6.548 13.641 6.5 13.499 6.5C13.3577 6.5 13.239 6.548 13.143 6.644C13.0477 6.74 13 6.85867 13 7V9.5H10.5C10.358 9.5 10.2393 9.548 10.144 9.644C10.048 9.74 10 9.85867 10 10C10 10.1413 10.048 10.26 10.144 10.356C10.24 10.4513 10.3587 10.499 10.5 10.499H13V13C13 13.142 13.048 13.2607 13.144 13.356C13.24 13.4513 13.359 13.4993 13.501 13.5M8.115 17C7.655 17 7.271 16.846 6.963 16.538C6.65433 16.2293 6.5 15.845 6.5 15.385V4.615C6.5 4.155 6.65433 3.771 6.963 3.463C7.271 3.15433 7.655 3 8.115 3H18.885C19.345 3 19.729 3.15433 20.037 3.463C20.3457 3.771 20.5 4.155 20.5 4.615V15.385C20.5 15.845 20.346 16.2293 20.038 16.538C19.7293 16.846 19.345 17 18.885 17H8.115ZM5.115 20C4.655 20 4.271 19.846 3.963 19.538C3.65433 19.2293 3.5 18.845 3.5 18.385V7.115C3.5 6.97367 3.548 6.855 3.644 6.759C3.74 6.663 3.85867 6.615 4 6.615C4.14133 6.615 4.26 6.663 4.356 6.759C4.45133 6.855 4.499 6.97367 4.499 7.115V18.385C4.499 18.5643 4.55667 18.7117 4.672 18.827C4.78733 18.9423 4.93467 19 5.114 19H16.384C16.5253 19 16.644 19.048 16.74 19.144C16.836 19.24 16.884 19.359 16.884 19.501C16.884 19.6423 16.836 19.761 16.74 19.857C16.644 19.9523 16.5253 20 16.384 20H5.115Z" fill="#3F7CBD"/>
</svg>
