<svg width="24" height="28" viewBox="0 0 24 28" fill="none" xmlns="http://www.w3.org/2000/svg">
<path fill-rule="evenodd" clip-rule="evenodd" d="M11.1426 0.353394C13.0712 0.353394 14.6141 0.353393 15.8702 0.454378C15.7195 0.856455 15.6423 1.28532 15.6426 1.71806V2.40039H14.9998C14.1473 2.40039 13.3297 2.75983 12.7269 3.39964C12.1242 4.03945 11.7855 4.90721 11.7855 5.81204C11.7855 6.71687 12.1242 7.58463 12.7269 8.22444C13.3297 8.86425 14.1473 9.22369 14.9998 9.22369H15.6426V9.90602C15.6426 10.6221 15.8549 11.32 16.2494 11.9009C16.6438 12.4817 17.2005 12.9162 17.8405 13.1426C18.4805 13.369 19.1714 13.376 19.8153 13.1625C20.4593 12.949 21.0236 12.5259 21.4284 11.953V16.7293C21.4284 21.8755 21.4284 24.4492 19.9215 26.0472C18.4159 27.6466 15.9911 27.6466 11.1426 27.6466C6.29422 27.6466 3.86936 27.6466 2.36379 26.0472C0.856933 24.4492 0.856934 21.8755 0.856934 16.7293V11.2707C0.856934 6.12455 0.856933 3.5508 2.36379 1.95278C3.86936 0.353393 6.29422 0.353394 11.1426 0.353394ZM5.99979 12.6353C5.6588 12.6353 5.33177 12.7791 5.09065 13.035C4.84954 13.291 4.71408 13.6381 4.71408 14C4.71408 14.3619 4.84954 14.709 5.09065 14.965C5.33177 15.2209 5.6588 15.3647 5.99979 15.3647H11.1426C11.4836 15.3647 11.8107 15.2209 12.0518 14.965C12.2929 14.709 12.4284 14.3619 12.4284 14C12.4284 13.6381 12.2929 13.291 12.0518 13.035C11.8107 12.7791 11.4836 12.6353 11.1426 12.6353H5.99979ZM5.99979 16.7293C5.6588 16.7293 5.33177 16.8731 5.09065 17.129C4.84954 17.385 4.71408 17.7321 4.71408 18.094C4.71408 18.4559 4.84954 18.803 5.09065 19.059C5.33177 19.3149 5.6588 19.4587 5.99979 19.4587H13.7141C14.0551 19.4587 14.3821 19.3149 14.6232 19.059C14.8643 18.803 14.9998 18.4559 14.9998 18.094C14.9998 17.7321 14.8643 17.385 14.6232 17.129C14.3821 16.8731 14.0551 16.7293 13.7141 16.7293H5.99979ZM5.99979 20.8233C5.6588 20.8233 5.33177 20.9671 5.09065 21.223C4.84954 21.4789 4.71408 21.826 4.71408 22.188C4.71408 22.5499 4.84954 22.897 5.09065 23.1529C5.33177 23.4089 5.6588 23.5526 5.99979 23.5526H11.1426C11.4836 23.5526 11.8107 23.4089 12.0518 23.1529C12.2929 22.897 12.4284 22.5499 12.4284 22.188C12.4284 21.826 12.2929 21.4789 12.0518 21.223C11.8107 20.9671 11.4836 20.8233 11.1426 20.8233H5.99979Z" fill="white"/>
<path d="M18.8571 1.71814V9.90611V1.71814ZM22.7143 5.81212H15H22.7143Z" fill="white"/>
<path d="M18.8571 1.71814V9.90611M22.7143 5.81212H15" stroke="white" stroke-width="2" stroke-linecap="round"/>
</svg>
