<svg width="25" height="24" viewBox="0 0 25 24" fill="none" xmlns="http://www.w3.org/2000/svg">
<path d="M8.34375 5H6.28125C5.73424 5 5.20964 5.21071 4.82284 5.58579C4.43605 5.96086 4.21875 6.46957 4.21875 7V19C4.21875 19.5304 4.43605 20.0391 4.82284 20.4142C5.20964 20.7893 5.73424 21 6.28125 21H12.1563M18.6562 14V18H22.7812M18.6562 11V7C18.6562 6.46957 18.439 5.96086 18.0522 5.58579C17.6654 5.21071 17.1408 5 16.5938 5H14.5312" stroke="black" stroke-width="2" stroke-linecap="round" stroke-linejoin="round"/>
<path d="M8.34375 11H12.4688M8.34375 15H11.4375M8.34375 5C8.34375 4.46957 8.56105 3.96086 8.94784 3.58579C9.33464 3.21071 9.85924 3 10.4063 3H12.4688C13.0158 3 13.5404 3.21071 13.9272 3.58579C14.314 3.96086 14.5313 4.46957 14.5313 5C14.5313 5.53043 14.314 6.03914 13.9272 6.41421C13.5404 6.78929 13.0158 7 12.4688 7H10.4063C9.85924 7 9.33464 6.78929 8.94784 6.41421C8.56105 6.03914 8.34375 5.53043 8.34375 5ZM14.5313 18C14.5313 19.0609 14.9658 20.0783 15.7394 20.8284C16.513 21.5786 17.5622 22 18.6563 22C19.7503 22 20.7995 21.5786 21.5731 20.8284C22.3467 20.0783 22.7813 19.0609 22.7813 18C22.7813 16.9391 22.3467 15.9217 21.5731 15.1716C20.7995 14.4214 19.7503 14 18.6563 14C17.5622 14 16.513 14.4214 15.7394 15.1716C14.9658 15.9217 14.5313 16.9391 14.5313 18Z" stroke="black" stroke-width="2" stroke-linecap="round" stroke-linejoin="round"/>
</svg>
