<svg width="14" height="15" viewBox="0 0 14 15" fill="none" xmlns="http://www.w3.org/2000/svg">
<path d="M12.72 2.87077H10.38V2.10714C10.38 1.63457 10.1883 1.18136 9.84693 0.8472C9.50562 0.513044 9.04269 0.325317 8.56 0.325317H5.44C4.95731 0.325317 4.49438 0.513044 4.15307 0.8472C3.81175 1.18136 3.62 1.63457 3.62 2.10714V2.87077H1.28C1.07313 2.87077 0.874735 2.95123 0.728457 3.09444C0.582178 3.23765 0.5 3.43188 0.5 3.63441C0.5 3.83694 0.582178 4.03117 0.728457 4.17438C0.874735 4.31759 1.07313 4.39804 1.28 4.39804H1.54V13.0526C1.54 13.3901 1.67696 13.7139 1.92076 13.9525C2.16456 14.1912 2.49522 14.3253 2.84 14.3253H11.16C11.5048 14.3253 11.8354 14.1912 12.0792 13.9525C12.323 13.7139 12.46 13.3901 12.46 13.0526V4.39804H12.72C12.9269 4.39804 13.1253 4.31759 13.2715 4.17438C13.4178 4.03117 13.5 3.83694 13.5 3.63441C13.5 3.43188 13.4178 3.23765 13.2715 3.09444C13.1253 2.95123 12.9269 2.87077 12.72 2.87077ZM5.18 2.10714C5.18 2.03963 5.20739 1.97488 5.25615 1.92714C5.30491 1.87941 5.37104 1.85259 5.44 1.85259H8.56C8.62896 1.85259 8.69509 1.87941 8.74385 1.92714C8.79261 1.97488 8.82 2.03963 8.82 2.10714V2.87077H5.18V2.10714ZM10.9 12.798H3.1V4.39804H10.9V12.798ZM6.22 6.43441V10.5071C6.22 10.7097 6.13782 10.9039 5.99154 11.0471C5.84526 11.1903 5.64687 11.2708 5.44 11.2708C5.23313 11.2708 5.03473 11.1903 4.88846 11.0471C4.74218 10.9039 4.66 10.7097 4.66 10.5071V6.43441C4.66 6.23188 4.74218 6.03765 4.88846 5.89444C5.03473 5.75123 5.23313 5.67077 5.44 5.67077C5.64687 5.67077 5.84526 5.75123 5.99154 5.89444C6.13782 6.03765 6.22 6.23188 6.22 6.43441ZM9.34 6.43441V10.5071C9.34 10.7097 9.25782 10.9039 9.11154 11.0471C8.96526 11.1903 8.76687 11.2708 8.56 11.2708C8.35313 11.2708 8.15474 11.1903 8.00846 11.0471C7.86218 10.9039 7.78 10.7097 7.78 10.5071V6.43441C7.78 6.23188 7.86218 6.03765 8.00846 5.89444C8.15474 5.75123 8.35313 5.67077 8.56 5.67077C8.76687 5.67077 8.96526 5.75123 9.11154 5.89444C9.25782 6.03765 9.34 6.23188 9.34 6.43441Z" fill="white"/>
</svg>
