<svg width="37" height="36" viewBox="0 0 37 36" fill="none" xmlns="http://www.w3.org/2000/svg">
<path d="M35.5393 31.1243L28.523 24.1148C28.2063 23.7985 27.777 23.6227 27.3266 23.6227H26.1795C28.1218 21.1409 29.276 18.0193 29.276 14.6236C29.276 6.54545 22.7241 0 14.638 0C6.55191 0 0 6.54545 0 14.6236C0 22.7017 6.55191 29.2471 14.638 29.2471C18.0371 29.2471 21.1617 28.0941 23.646 26.1537V27.2997C23.646 27.7496 23.8219 28.1785 24.1386 28.4949L31.155 35.5043C31.8165 36.1652 32.8862 36.1652 33.5407 35.5043L35.5323 33.5147C36.1938 32.8538 36.1938 31.7852 35.5393 31.1243ZM14.638 23.6227C9.66248 23.6227 5.62999 19.6012 5.62999 14.6236C5.62999 9.65296 9.65544 5.62445 14.638 5.62445C19.6135 5.62445 23.646 9.64593 23.646 14.6236C23.646 19.5942 19.6205 23.6227 14.638 23.6227Z" fill="#8A8A8A"/>
</svg>
