<svg width="30" height="28" viewBox="0 0 30 28" fill="none" xmlns="http://www.w3.org/2000/svg">
<path d="M20.9959 5.16255L25.6103 9.7743C25.8047 9.96858 25.8047 10.2856 25.6103 10.4799L14.4375 21.6462L9.69009 22.1728C9.05574 22.2444 8.51858 21.7076 8.5902 21.0736L9.11712 16.3289L20.2899 5.16255C20.4843 4.96827 20.8015 4.96827 20.9959 5.16255ZM29.2834 3.99172L26.7869 1.49668C26.0093 0.719532 24.7457 0.719532 23.963 1.49668L22.152 3.30661C21.9576 3.50089 21.9576 3.81789 22.152 4.01217L26.7664 8.62392C26.9608 8.8182 27.278 8.8182 27.4724 8.62392L29.2834 6.81399C30.061 6.03173 30.061 4.76887 29.2834 3.99172ZM20.0443 18.6092V23.814H3.67398V7.45309H15.4299C15.5937 7.45309 15.7471 7.38662 15.8648 7.27414L17.9111 5.22902C18.2999 4.84045 18.0236 4.1809 17.4762 4.1809H2.85546C1.49979 4.1809 0.399902 5.28015 0.399902 6.63504V24.6321C0.399902 25.987 1.49979 27.0862 2.85546 27.0862H20.8629C22.2185 27.0862 23.3184 25.987 23.3184 24.6321V16.5641C23.3184 16.017 22.6585 15.746 22.2697 16.1295L20.2234 18.1746C20.1109 18.2922 20.0443 18.4456 20.0443 18.6092Z" fill="#666666"/>
</svg>
