<svg width="39" height="30" viewBox="0 0 39 30" fill="none" xmlns="http://www.w3.org/2000/svg">
<path d="M26.2861 25.2273V16.3636H13.9868C13.6269 16.3636 13.2817 16.22 13.0272 15.9642C12.7727 15.7085 12.6297 15.3617 12.6297 15C12.6297 14.6383 12.7727 14.2915 13.0272 14.0358C13.2817 13.78 13.6269 13.6364 13.9868 13.6364H26.2861V4.77273C26.2848 3.50734 25.7839 2.29416 24.8934 1.39939C24.0029 0.504628 22.7954 0.0013536 21.5361 0H5.25008C3.99069 0.0013536 2.78327 0.504628 1.89275 1.39939C1.00223 2.29416 0.501347 3.50734 0.5 4.77273V25.2273C0.501347 26.4927 1.00223 27.7058 1.89275 28.6006C2.78327 29.4954 3.99069 29.9986 5.25008 30H21.5361C22.7954 29.9986 24.0029 29.4954 24.8934 28.6006C25.7839 27.7058 26.2848 26.4927 26.2861 25.2273ZM33.8668 16.3636L29.3983 20.8543C29.1545 21.1121 29.0206 21.4554 29.0252 21.811C29.0297 22.1665 29.1723 22.5063 29.4225 22.7577C29.6728 23.0092 30.0109 23.1525 30.3648 23.157C30.7187 23.1616 31.0604 23.027 31.317 22.7821L38.1028 15.9639C38.3571 15.7082 38.5 15.3615 38.5 15C38.5 14.6385 38.3571 14.2918 38.1028 14.0361L31.317 7.2179C31.0604 6.97296 30.7187 6.83843 30.3648 6.84298C30.0109 6.84753 29.6728 6.99081 29.4225 7.24227C29.1723 7.49373 29.0297 7.83346 29.0252 8.18905C29.0206 8.54463 29.1545 8.88793 29.3983 9.14574L33.8668 13.6364H26.2861V16.3636H33.8668Z" fill="#3F7CBD"/>
</svg>
