<svg width="19" height="19" viewBox="0 0 19 19" fill="none" xmlns="http://www.w3.org/2000/svg">
<path fill-rule="evenodd" clip-rule="evenodd" d="M9.5 0.75C9.65604 0.750091 9.81007 0.7829 9.9507 0.846005C10.0913 0.909109 10.215 1.00089 10.3125 1.11458L14.4792 5.97569C14.5698 6.07473 14.6381 6.18975 14.6802 6.31392C14.7223 6.43809 14.7372 6.56888 14.724 6.69853C14.7109 6.82818 14.67 6.95405 14.6038 7.06866C14.5375 7.18327 14.4473 7.28429 14.3384 7.36573C14.2295 7.44716 14.1042 7.50735 13.9699 7.54271C13.8356 7.57808 13.6951 7.5879 13.5566 7.5716C13.4182 7.5553 13.2847 7.51321 13.164 7.44782C13.0433 7.38244 12.938 7.29509 12.8542 7.19097L10.5417 4.49306V11.4444C10.5417 11.7023 10.4319 11.9496 10.2366 12.1319C10.0412 12.3142 9.77627 12.4167 9.5 12.4167C9.22373 12.4167 8.95878 12.3142 8.76343 12.1319C8.56808 11.9496 8.45833 11.7023 8.45833 11.4444V4.49306L6.14583 7.19194C6.06203 7.29607 5.95666 7.38341 5.83599 7.4488C5.71532 7.51418 5.58181 7.55627 5.44337 7.57257C5.30494 7.58887 5.16441 7.57905 5.03012 7.54368C4.89583 7.50832 4.77052 7.44813 4.66163 7.3667C4.55275 7.28527 4.4625 7.18425 4.39625 7.06963C4.32999 6.95502 4.28908 6.82915 4.27595 6.6995C4.26282 6.56985 4.27773 6.43906 4.31979 6.31489C4.36186 6.19072 4.43023 6.0757 4.52083 5.97667L8.6875 1.11556C8.78492 1.00169 8.90852 0.909718 9.04916 0.846443C9.1898 0.783168 9.34387 0.750208 9.5 0.75ZM6.375 11.4444V10.4722H2.20833C1.6558 10.4722 1.12589 10.6771 0.735194 11.0417C0.344493 11.4064 0.125 11.901 0.125 12.4167V16.3056C0.125 16.8213 0.344493 17.3158 0.735194 17.6805C1.12589 18.0451 1.6558 18.25 2.20833 18.25H16.7917C17.3442 18.25 17.8741 18.0451 18.2648 17.6805C18.6555 17.3158 18.875 16.8213 18.875 16.3056V12.4167C18.875 11.901 18.6555 11.4064 18.2648 11.0417C17.8741 10.6771 17.3442 10.4722 16.7917 10.4722H12.625V11.4444C12.625 12.218 12.2958 12.9599 11.7097 13.5068C11.1237 14.0538 10.3288 14.3611 9.5 14.3611C8.6712 14.3611 7.87634 14.0538 7.29029 13.5068C6.70424 12.9599 6.375 12.218 6.375 11.4444ZM14.7083 13.3889C14.4321 13.3889 14.1671 13.4913 13.9718 13.6736C13.7764 13.856 13.6667 14.1033 13.6667 14.3611C13.6667 14.619 13.7764 14.8662 13.9718 15.0486C14.1671 15.2309 14.4321 15.3333 14.7083 15.3333H14.7188C14.995 15.3333 15.26 15.2309 15.4553 15.0486C15.6507 14.8662 15.7604 14.619 15.7604 14.3611C15.7604 14.1033 15.6507 13.856 15.4553 13.6736C15.26 13.4913 14.995 13.3889 14.7188 13.3889H14.7083Z" fill="#666666"/>
</svg>
