<svg width="24" height="18" viewBox="0 0 24 18" fill="none" xmlns="http://www.w3.org/2000/svg">
<path d="M13.2222 2H23M13.2222 6H19.3333M13.2222 12H23M13.2222 16H19.3333M1 2C1 1.73478 1.12877 1.48043 1.35798 1.29289C1.58719 1.10536 1.89807 1 2.22222 1H7.11111C7.43526 1 7.74614 1.10536 7.97535 1.29289C8.20456 1.48043 8.33333 1.73478 8.33333 2V6C8.33333 6.26522 8.20456 6.51957 7.97535 6.70711C7.74614 6.89464 7.43526 7 7.11111 7H2.22222C1.89807 7 1.58719 6.89464 1.35798 6.70711C1.12877 6.51957 1 6.26522 1 6V2ZM1 12C1 11.7348 1.12877 11.4804 1.35798 11.2929C1.58719 11.1054 1.89807 11 2.22222 11H7.11111C7.43526 11 7.74614 11.1054 7.97535 11.2929C8.20456 11.4804 8.33333 11.7348 8.33333 12V16C8.33333 16.2652 8.20456 16.5196 7.97535 16.7071C7.74614 16.8946 7.43526 17 7.11111 17H2.22222C1.89807 17 1.58719 16.8946 1.35798 16.7071C1.12877 16.5196 1 16.2652 1 16V12Z" stroke="black" stroke-width="2" stroke-linecap="round" stroke-linejoin="round"/>
</svg>
