<svg width="38" height="30" viewBox="0 0 38 30" fill="none" xmlns="http://www.w3.org/2000/svg">
<path d="M25.7861 25.2273V16.3636H13.4868C13.1269 16.3636 12.7817 16.22 12.5272 15.9642C12.2727 15.7085 12.1297 15.3617 12.1297 15C12.1297 14.6383 12.2727 14.2915 12.5272 14.0358C12.7817 13.78 13.1269 13.6364 13.4868 13.6364H25.7861V4.77273C25.7848 3.50734 25.2839 2.29416 24.3934 1.39939C23.5029 0.504628 22.2954 0.0013536 21.0361 0H4.75008C3.49069 0.0013536 2.28327 0.504628 1.39275 1.39939C0.502233 2.29416 0.00134718 3.50734 0 4.77273V25.2273C0.00134718 26.4927 0.502233 27.7058 1.39275 28.6006C2.28327 29.4954 3.49069 29.9986 4.75008 30H21.0361C22.2954 29.9986 23.5029 29.4954 24.3934 28.6006C25.2839 27.7058 25.7848 26.4927 25.7861 25.2273ZM33.3668 16.3636L28.8983 20.8543C28.6545 21.1121 28.5206 21.4554 28.5252 21.811C28.5297 22.1665 28.6723 22.5063 28.9225 22.7577C29.1728 23.0092 29.5109 23.1525 29.8648 23.157C30.2187 23.1616 30.5604 23.027 30.817 22.7821L37.6028 15.9639C37.8571 15.7082 38 15.3615 38 15C38 14.6385 37.8571 14.2918 37.6028 14.0361L30.817 7.2179C30.5604 6.97296 30.2187 6.83843 29.8648 6.84298C29.5109 6.84753 29.1728 6.99081 28.9225 7.24227C28.6723 7.49373 28.5297 7.83346 28.5252 8.18905C28.5206 8.54463 28.6545 8.88793 28.8983 9.14574L33.3668 13.6364H25.7861V16.3636H33.3668Z" fill="#3F7CBD"/>
</svg>
